# xmcd CD database file
#
# Track frame offsets:
#	150
#	12072
#	22791
#	34875
#	46988
#	55474
#	66225
#	77624
#	91914
#	106148
#	118556
#	132574
#	142782
#	152509
#	163834
#	177139
#	187925
#	199914
#	209325
#	222001
#	234685
#	245021
#	256278
#	268493
#	280568
#	294312
#	304889
#
# Disc length: 4250 seconds
#
# Revision: 0
# Processed by: cddbd v1.5.2PL0 Copyright (c) Steve Scherf et al.
# Submitted via: CDex 1.76
#
DISCID=7c10981b
DTITLE=Ivan Mladek - Jozin z bazin a dalsich 80 pisni - cd3
DYEAR=1900
DGENRE=Country
TTITLE0=V hotelu King
TTITLE1=Hrajeme ping-pong
TTITLE2=Ja a muj kamion
TTITLE3=Tahni vezi
TTITLE4=O nebezpecenstvu hor
TTITLE5=Nad Sazavou
TTITLE6=Mamut a Helmut
TTITLE7=Drahomira
TTITLE8=Psohlavci
TTITLE9=Pojd Igrid pojd
TTITLE10=Pistolnik Harry
TTITLE11=Malir olejovych obrazku
TTITLE12=Ruska trojka
TTITLE13=Nas pav
TTITLE14=Tanja
TTITLE15=Rano rano ranicko
TTITLE16=Je to vsechno na bejka
TTITLE17=Zamberk - Vamberk
TTITLE18=Vyklepnul jsem Denisu
TTITLE19=Hucul
TTITLE20=Cyril jedl cerel
TTITLE21=Pojed Vasku na Aljasku
TTITLE22=Slunce je po jazzu nejlepsi lekar
TTITLE23=V hospode u Amazonky
TTITLE24=Manekynka
TTITLE25=pet poslancu
TTITLE26=Beaujolais
EXTD=
EXTT0=
EXTT1=
EXTT2=
EXTT3=
EXTT4=
EXTT5=
EXTT6=
EXTT7=
EXTT8=
EXTT9=
EXTT10=
EXTT11=
EXTT12=
EXTT13=
EXTT14=
EXTT15=
EXTT16=
EXTT17=
EXTT18=
EXTT19=
EXTT20=
EXTT21=
EXTT22=
EXTT23=
EXTT24=
EXTT25=
EXTT26=
PLAYORDER=
